<svg width="328" height="87" viewBox="0 0 328 87" fill="none" xmlns="http://www.w3.org/2000/svg">
<path fill-rule="evenodd" clip-rule="evenodd" d="M70.0626 56.0229V30.5449L15.0499 85.9433L14.9679 86.0247H14.969L14.9678 86.0259H70.0626V86.0247H103.386V69.0625H57.4393L70.0626 56.0229Z" fill="#FC5300"/>
<path d="M0.585938 76.5883V52.7476L35.0782 16.9883H22.4511V0.0288086H77.5459L0.585938 76.5883Z" fill="#585858"/>
<path d="M165.957 59.7705L177.958 35.8689L189.858 59.7705H205.115L177.958 5.45801L137.275 86.8251H152.328L159.244 73.1961L165.957 59.7705ZM211.827 73.2978H196.775L203.487 86.8251H218.642L211.827 73.2978ZM319.071 13.3913C313.782 8.10241 307.374 5.45801 299.949 5.45801H259.266L272.793 19.087H299.949C303.611 19.087 306.764 20.4092 309.408 23.0536C312.154 25.6981 313.477 28.9528 313.477 32.6143C313.477 36.3775 312.053 39.5305 309.408 42.1749C306.764 44.8193 303.611 46.1415 299.949 46.1415H272.793H259.266V86.8251H272.793V59.7705H299.949C307.374 59.7705 313.782 57.1261 319.071 51.8372C324.461 46.5484 327.004 40.039 327.004 32.6143C327.004 25.1895 324.36 18.7819 319.071 13.3913Z" fill="#585858"/>
</svg>
